<?xml version="1.0" encoding="UTF-8" standalone="no"?>
<!-- Created with Inkscape (http://www.inkscape.org/) -->

<svg
   width="72mm"
   height="58mm"
   viewBox="0 0 72 58"
   version="1.1"
   id="svg3036"
   xmlns="http://www.w3.org/2000/svg"
   xmlnsSvg="http://www.w3.org/2000/svg">
  <defs
     id="defs3033" />
  <g
     id="layer1"
     transform="translate(-26.861383,-43.88)">
    <g
       id="g4495"
       transform="translate(0,1.6877766)">
      <g
         id="g1737"
         transform="translate(-101.27633,-46.413125)">
        <path
           style="fill:#efc822;stroke-width:0.0846667"
           d="m 163.15028,122.71162 c -4.17407,-5.65972 -13.01628,-8.88003 -23.06736,-8.40109 -0.92533,0.0441 -1.69027,0.0712 -1.69987,0.0602 -0.01,-0.011 0.69262,-0.83121 1.56049,-1.82274 l 1.57794,-1.80278 1.31233,0.05 c 8.69072,0.33147 15.42117,3.72615 19.38731,9.77851 0.58543,0.89338 1.61725,2.87867 1.49612,2.87867 -0.0113,0 -0.26645,-0.33337 -0.56696,-0.74083 z m 1.52304,0.56054 c 0.55618,-1.60371 2.28872,-4.13062 4.02616,-5.87213 4.10313,-4.11277 9.7933,-6.34812 16.80633,-6.60226 l 1.31233,-0.0476 1.57647,1.80029 c 0.86706,0.99016 1.56928,1.80926 1.56049,1.82024 -0.009,0.011 -0.77306,-0.0161 -1.69839,-0.0602 -7.03884,-0.33541 -14.24538,1.31217 -18.6259,4.25831 -1.9175,1.28962 -3.70348,3.01242 -4.88802,4.7151 l -0.14668,0.21085 z m -0.16445,-1.85813 c -2.5e-4,-0.0268 -0.0567,-0.44989 -0.12552,-0.94015 -0.80303,-5.7206 0.33385,-12.06003 2.85521,-15.92114 3.96153,-6.066522 9.97502,-4.32858 12.75554,3.68644 0.19087,0.55021 0.34704,1.02832 0.34704,1.06247 0,0.0341 -0.39052,0.14916 -0.86783,0.25559 -6.36829,1.42 -11.88039,5.56829 -14.46966,10.88955 -0.27191,0.5588 -0.49456,0.99405 -0.49478,0.96724 z m 6.75502,-21.2916 c -2.15865,-0.523363 -3.78598,-2.584816 -3.79083,-4.802089 l -0.001,-0.573113 -0.23283,0.05521 c -0.65814,0.156073 -1.45142,0.787488 -1.87597,1.493178 -0.32824,0.545605 -0.71147,0.353623 -1.23553,-0.618948 -0.0931,-0.17284 -0.27581,-0.486776 -0.40595,-0.697637 -0.55046,-0.891879 -0.4905,-1.652511 0.16794,-2.130252 0.19507,-0.141531 0.35699,-0.29579 0.35984,-0.342797 0.02,-0.329815 2.56115,-0.320132 3.48838,0.01329 l 0.42734,0.153671 0.17586,-0.252415 c 1.95144,-2.800962 6.29055,-2.844203 8.19125,-0.08163 l 0.24543,0.356707 0.40595,-0.104113 c 1.14325,-0.293202 3.11074,-0.345235 3.3243,-0.08792 0.0545,0.06562 0.2026,0.142065 0.32918,0.169868 0.33692,0.074 0.80987,0.818859 0.74042,1.166102 -0.097,0.485168 -0.80505,1.848317 -1.20032,2.31099 -0.41759,0.488787 -0.57194,0.557353 -0.70308,0.312317 -0.11158,-0.20848 -1.82896,-1.734757 -2.03967,-1.812707 -0.1633,-0.06041 -0.17193,-0.03099 -0.17312,0.58986 -0.006,3.249022 -3.04855,5.645848 -6.19734,4.882418 z"
           id="path240" />
        <path
           style="fill:#0e6fb6;fill-opacity:1;stroke-width:0.0846667"
           d="m 162.60348,123.82026 c -5.65698,-3.45497 -11.7293,-5.14892 -18.45733,-5.14892 -3.90328,0 -7.10102,0.45326 -9.81406,1.3911 -0.2754,0.0952 -0.51692,0.1569 -0.5367,0.13712 -0.0198,-0.0198 0.49129,-0.98004 1.13572,-2.13389 1.04466,-1.87044 1.19924,-2.10481 1.4257,-2.16152 2.16418,-0.54196 7.41883,-0.73422 10.20234,-0.37329 5.71754,0.74138 10.81609,3.03143 15.0622,6.76533 0.80101,0.70437 2.10227,2.06208 2.0307,2.11878 -0.0179,0.0142 -0.48977,-0.25343 -1.04857,-0.59471 z m 2.07433,0.56014 c 0,-0.12811 1.98714,-2.08872 2.76357,-2.72667 3.57278,-2.93555 7.91306,-4.96605 12.4341,-5.81702 3.68235,-0.69311 8.62883,-0.66621 12.06056,0.0656 0.27854,0.0594 0.34554,0.15834 1.46552,2.16427 0.6455,1.15611 1.15857,2.11708 1.14017,2.13549 -0.0184,0.0184 -0.2588,-0.0444 -0.53419,-0.13959 -4.28184,-1.47985 -10.89622,-1.83935 -16.12173,-0.87623 -4.19823,0.77377 -8.40316,2.36969 -12.08617,4.5871 -0.617,0.37148 -1.12183,0.64466 -1.12183,0.60705 z m -20.92854,-0.90115 c 0.0611,-0.0245 0.13415,-0.0215 0.16228,0.007 0.0281,0.0281 -0.0219,0.0481 -0.11113,0.0445 -0.0986,-0.004 -0.11869,-0.0241 -0.0512,-0.0511 z m 9.48267,0 c 0.0611,-0.0245 0.13414,-0.0215 0.16228,0.007 0.0281,0.0281 -0.0219,0.0481 -0.11113,0.0445 -0.0986,-0.004 -0.11869,-0.0241 -0.0511,-0.0511 z m 21.75933,0 c 0.0611,-0.0245 0.13414,-0.0215 0.16228,0.007 0.0281,0.0281 -0.0219,0.0481 -0.11113,0.0445 -0.0986,-0.004 -0.11869,-0.0241 -0.0512,-0.0511 z m 9.48267,0 c 0.0611,-0.0245 0.13414,-0.0215 0.16227,0.007 0.0281,0.0281 -0.0219,0.0481 -0.11112,0.0445 -0.0986,-0.004 -0.1187,-0.0241 -0.0512,-0.0511 z m -39.71396,-0.0829 c 0.0582,-0.0235 0.15346,-0.0235 0.21167,0 0.0582,0.0235 0.0106,0.0427 -0.10584,0.0427 -0.11641,0 -0.16404,-0.0192 -0.10583,-0.0427 z m 7.28133,0 c 0.0582,-0.0235 0.15346,-0.0235 0.21167,0 0.0582,0.0235 0.0106,0.0427 -0.10583,0.0427 -0.11642,0 -0.16405,-0.0192 -0.10584,-0.0427 z m 24.04533,0 c 0.0582,-0.0235 0.15346,-0.0235 0.21167,0 0.0582,0.0235 0.0106,0.0427 -0.10583,0.0427 -0.11642,0 -0.16404,-0.0192 -0.10584,-0.0427 z m 7.28134,0 c 0.0582,-0.0235 0.15346,-0.0235 0.21166,0 0.0582,0.0235 0.0106,0.0427 -0.10583,0.0427 -0.11642,0 -0.16404,-0.0192 -0.10583,-0.0427 z m -36.91368,-0.0885 c 0.10532,-0.0203 0.25772,-0.0195 0.33867,0.002 0.081,0.0212 -0.005,0.0378 -0.19149,0.0368 -0.18627,-9.4e-4 -0.2525,-0.0183 -0.14718,-0.0385 z m 3.81,0 c 0.10532,-0.0203 0.25772,-0.0195 0.33867,0.002 0.081,0.0212 -0.005,0.0378 -0.19149,0.0368 -0.18627,-9.4e-4 -0.2525,-0.0183 -0.14718,-0.0385 z m 27.51666,0 c 0.10532,-0.0203 0.25772,-0.0195 0.33867,0.002 0.081,0.0212 -0.005,0.0378 -0.19149,0.0368 -0.18626,-9.4e-4 -0.25249,-0.0183 -0.14718,-0.0385 z m 3.81,0 c 0.10532,-0.0203 0.25772,-0.0195 0.33867,0.002 0.081,0.0212 -0.005,0.0378 -0.19149,0.0368 -0.18626,-9.4e-4 -0.25249,-0.0183 -0.14718,-0.0385 z m -17.16715,-1.62515 c 0,-0.19171 -0.62848,-1.45886 -1.13767,-2.2938 -2.87942,-4.72147 -8.06093,-8.29318 -13.82716,-9.5313 -0.81908,-0.17587 -0.79382,-0.0787 -0.35367,-1.36057 1.07367,-3.12684 2.85284,-5.57613 4.80678,-6.61723 4.28207,-2.281588 8.77578,1.73657 10.41777,9.31529 0.16874,0.77881 0.17079,0.8536 0.0475,1.73084 -0.35519,2.52741 -0.28349,6.68892 0.14399,8.35713 0.0582,0.22706 0.0561,0.35627 -0.007,0.4191 -0.0647,0.0647 -0.0908,0.0591 -0.0908,-0.0195 z m 22.08213,-1.50542 c 0.0611,-0.0245 0.13414,-0.0215 0.16227,0.007 0.0281,0.0281 -0.0219,0.0481 -0.11112,0.0445 -0.0986,-0.004 -0.1187,-0.0241 -0.0511,-0.0511 z m -44.02667,-0.0847 c 0.0611,-0.0245 0.13414,-0.0214 0.16228,0.007 0.0281,0.0281 -0.0219,0.0481 -0.11113,0.0445 -0.0986,-0.004 -0.11869,-0.0241 -0.0511,-0.0512 z m 7.78933,0 c 0.0611,-0.0245 0.13415,-0.0214 0.16228,0.007 0.0281,0.0281 -0.0219,0.0481 -0.11112,0.0445 -0.0986,-0.004 -0.1187,-0.0241 -0.0512,-0.0512 z m 35.47534,0 c 0.0611,-0.0245 0.13414,-0.0214 0.16227,0.007 0.0281,0.0281 -0.0219,0.0481 -0.11112,0.0445 -0.0986,-0.004 -0.1187,-0.0241 -0.0511,-0.0512 z m -42.33334,-0.0847 c 0.0611,-0.0245 0.13415,-0.0215 0.16228,0.007 0.0281,0.0281 -0.0219,0.0482 -0.11112,0.0445 -0.0986,-0.004 -0.1187,-0.0241 -0.0512,-0.0512 z m 6.01134,0 c 0.0611,-0.0245 0.13414,-0.0215 0.16228,0.007 0.0281,0.0281 -0.0219,0.0482 -0.11113,0.0445 -0.0986,-0.004 -0.11869,-0.0241 -0.0512,-0.0512 z m 29.37933,0 c 0.0611,-0.0245 0.13414,-0.0215 0.16228,0.007 0.0281,0.0281 -0.0219,0.0482 -0.11113,0.0445 -0.0986,-0.004 -0.11869,-0.0241 -0.0512,-0.0512 z m 6.01133,0 c 0.0611,-0.0245 0.13415,-0.0215 0.16228,0.007 0.0281,0.0281 -0.0219,0.0482 -0.11112,0.0445 -0.0986,-0.004 -0.1187,-0.0241 -0.0512,-0.0512 z m -40.09334,-0.0855 c 0.0824,-0.0215 0.19668,-0.02 0.254,0.003 0.0573,0.0232 -0.0101,0.0408 -0.14978,0.039 -0.1397,-0.002 -0.1866,-0.0207 -0.10422,-0.0422 z m 3.30039,3.4e-4 c 0.0815,-0.0213 0.21484,-0.0213 0.29633,0 0.0815,0.0213 0.0148,0.0387 -0.14817,0.0387 -0.16298,0 -0.22966,-0.0174 -0.14816,-0.0387 z m 32.00399,0 c 0.0815,-0.0213 0.21485,-0.0213 0.29634,0 0.0815,0.0213 0.0148,0.0387 -0.14817,0.0387 -0.16298,0 -0.22966,-0.0174 -0.14817,-0.0387 z m 3.302,0 c 0.0815,-0.0213 0.21485,-0.0213 0.29634,0 0.0815,0.0213 0.0148,0.0387 -0.14817,0.0387 -0.16298,0 -0.22966,-0.0174 -0.14817,-0.0387 z M 155.11048,100.4637 c -2.15468,-0.590076 -3.72239,-2.621863 -3.72239,-4.824306 0,-4.441999 5.36392,-6.691918 8.50198,-3.566194 2.63348,2.623124 1.64518,7.012008 -1.86434,8.27919 -0.66255,0.23922 -2.22967,0.29906 -2.91525,0.11131 z"
           id="path238" />
        <path
           style="fill:#302682;stroke-width:0.0846667"
           d="m 131.40792,126.14968 c 0.002,-0.0166 0.22134,-0.86317 0.48684,-1.88121 l 0.48272,-1.85099 0.42333,-0.15985 c 6.30647,-2.38131 14.9706,-2.97813 21.35042,-1.4707 3.44536,0.81407 7.9742,2.96776 9.87575,4.69642 0.0379,0.0344 -0.43327,-0.0842 -1.04697,-0.26358 -9.71296,-2.83919 -22.6468,-2.4664 -31.43529,0.90606 -0.0775,0.0297 -0.13906,0.0405 -0.1368,0.0238 z m 64.42722,-0.33813 c -7.9273,-2.74636 -18.00183,-3.27315 -27.09333,-1.4167 -1.26824,0.25897 -3.47984,0.81466 -4.14867,1.0424 l -0.38099,0.12973 0.25399,-0.21398 c 1.18204,-0.99583 4.1198,-2.64565 6.09601,-3.42347 6.80749,-2.67937 15.71807,-2.66945 24.02969,0.0268 l 1.3703,0.44451 0.47888,1.8805 c 0.26338,1.03427 0.45388,1.87759 0.42333,1.87404 -0.0305,-0.004 -0.49369,-0.15825 -1.02921,-0.34378 z"
           id="path236" />
      </g>
      <g
         id="g2601"
         transform="translate(26.861383,42.788997)">
        <g
           aria-label="Міжнародний фонд «ДОПОМОГА ПОСТРАЖДАЛИМ ДІТЯМ»"
           transform="scale(0.95231348,1.0500744)"
           id="text974"
           style="font-size:4.93854px;line-height:1.25;font-family:Montserrat;-inkscape-font-specification:Montserrat;letter-spacing:0px;word-spacing:0px;fill:#0e6fb6;stroke-width:0.251966">
          <path
             d="m 10.327114,40.035645 v -3.456978 h 0.958077 l 1.382791,2.256912 h -0.503731 l 1.343283,-2.256912 h 0.958076 l 0.0099,3.456978 h -1.061787 l -0.0099,-1.856892 h 0.167911 l -0.918569,1.545764 H 12.139558 L 11.181481,38.178753 H 11.3889 v 1.856892 z"
             id="path2426" />
          <path
             d="m 15.038478,40.035645 v -2.701382 h 1.11611 v 2.701382 z m 0.558055,-2.918678 q -0.30619,0 -0.488916,-0.162971 -0.182726,-0.162972 -0.182726,-0.404961 0,-0.241988 0.182726,-0.40496 0.182726,-0.162972 0.488916,-0.162972 0.306189,0 0.488915,0.153095 0.182726,0.153095 0.182726,0.395083 0,0.256804 -0.182726,0.424715 -0.182726,0.162971 -0.488915,0.162971 z"
             id="path2428" />
          <path
             d="m 19.991837,40.035645 -0.562994,-1.239574 0.898815,-0.523485 0.982769,1.763059 z M 19.088084,39.13683 v -0.854367 h 1.002524 v 0.854367 z m 1.35316,-0.330882 -1.04697,-0.09877 0.686457,-1.372914 h 1.175372 z m -2.716197,1.229697 h -1.313652 l 0.977831,-1.763059 0.898815,0.523485 z m 1.688981,0 h -1.101295 v -2.701382 h 1.101295 z m -0.78029,-0.898815 h -1.002523 v -0.854367 h 1.002523 z M 17.27564,38.805948 16.465719,37.334263 h 1.175373 l 0.67658,1.372914 z"
             id="path2430" />
          <path
             d="m 21.56723,40.035645 v -2.701382 h 1.111172 v 0.9482 h 0.760535 v -0.9482 h 1.111171 v 2.701382 h -1.111171 v -0.879061 h -0.760535 v 0.879061 z"
             id="path2432" />
          <path
             d="m 26.648983,40.035645 v -0.479039 l -0.07902,-0.128402 v -0.908691 q 0,-0.197542 -0.123464,-0.301251 -0.118525,-0.10371 -0.390144,-0.10371 -0.182726,0 -0.370391,0.05926 -0.187664,0.05432 -0.321005,0.153095 l -0.355575,-0.735843 q 0.23705,-0.148156 0.567932,-0.227173 0.330882,-0.07902 0.646949,-0.07902 0.696334,0 1.076602,0.311128 0.385206,0.311128 0.385206,0.987708 v 1.451931 z m -0.765473,0.04939 q -0.330882,0 -0.553117,-0.113586 -0.222234,-0.113587 -0.33582,-0.301251 -0.113587,-0.192603 -0.113587,-0.424715 0,-0.261742 0.133341,-0.444468 0.13334,-0.182726 0.40496,-0.276559 0.276558,-0.09383 0.696334,-0.09383 h 0.562994 v 0.538301 h -0.385206 q -0.177788,0 -0.261743,0.05926 -0.07902,0.05432 -0.07902,0.167911 0,0.09383 0.06914,0.158033 0.07408,0.05926 0.197542,0.05926 0.113586,0 0.207418,-0.05926 0.09877,-0.0642 0.143218,-0.197542 l 0.143218,0.330883 q -0.0642,0.301251 -0.27162,0.449407 -0.207419,0.148156 -0.558055,0.148156 z"
             id="path2434" />
          <path
             d="m 29.942992,40.08503 q -0.350637,0 -0.582748,-0.148156 -0.227173,-0.153095 -0.335821,-0.459284 -0.108648,-0.311129 -0.108648,-0.790167 0,-0.488915 0.09877,-0.795105 0.10371,-0.311128 0.330882,-0.459284 0.227173,-0.148156 0.597564,-0.148156 0.355575,0 0.651887,0.172849 0.296312,0.16791 0.4741,0.483977 0.177787,0.311128 0.177787,0.745719 0,0.434592 -0.177787,0.750658 -0.177788,0.311128 -0.4741,0.479039 -0.296312,0.16791 -0.651887,0.16791 z m -1.802567,0.908691 v -3.659458 h 1.061786 v 0.365452 l 0.0049,0.987708 0.04939,0.987708 v 1.31859 z m 1.535886,-1.777874 q 0.123463,0 0.222234,-0.05926 0.09877,-0.05926 0.158033,-0.177787 0.05926,-0.118525 0.05926,-0.291374 0,-0.177787 -0.05926,-0.296312 -0.05926,-0.118525 -0.158033,-0.177788 -0.09877,-0.05926 -0.222234,-0.05926 -0.123464,0 -0.222235,0.05926 -0.09877,0.05926 -0.158033,0.177788 -0.05926,0.118525 -0.05926,0.296312 0,0.172849 0.05926,0.291374 0.05926,0.118525 0.158033,0.177787 0.09877,0.05926 0.222235,0.05926 z"
             id="path2436" />
          <path
             d="m 32.999945,40.08503 q -0.459284,0 -0.814859,-0.177788 -0.350636,-0.182725 -0.553116,-0.498792 -0.202481,-0.316067 -0.202481,-0.725965 0,-0.409899 0.202481,-0.725966 0.20248,-0.316066 0.553116,-0.493854 0.355575,-0.177787 0.814859,-0.177787 0.459284,0 0.814859,0.177787 0.355575,0.177788 0.553117,0.493854 0.20248,0.316067 0.20248,0.725966 0,0.409898 -0.20248,0.725965 -0.197542,0.316067 -0.553117,0.498792 -0.355575,0.177788 -0.814859,0.177788 z m 0,-0.869183 q 0.123464,0 0.222234,-0.05926 0.09877,-0.05926 0.158034,-0.177787 0.05926,-0.123464 0.05926,-0.296312 0,-0.177788 -0.05926,-0.291374 -0.05926,-0.118525 -0.158034,-0.177788 -0.09877,-0.05926 -0.222234,-0.05926 -0.123463,0 -0.222234,0.05926 -0.09877,0.05926 -0.158033,0.177788 -0.05926,0.113586 -0.05926,0.291374 0,0.172848 0.05926,0.296312 0.05926,0.118525 0.158033,0.177787 0.09877,0.05926 0.222234,0.05926 z"
             id="path2438" />
          <path
             d="m 36.743362,39.556606 v -1.35316 h -0.558055 l -0.0049,0.167911 q -0.0049,0.172848 -0.01975,0.321005 -0.0099,0.148156 -0.04445,0.266681 -0.03457,0.113586 -0.10371,0.20248 -0.0642,0.08395 -0.182726,0.138279 l -1.091417,-0.138279 q 0.128402,0 0.212357,-0.0642 0.08396,-0.06914 0.128402,-0.187665 0.04939,-0.123463 0.06914,-0.281496 0.02469,-0.158034 0.02963,-0.34076 l 0.03457,-0.953138 h 2.642119 v 2.222343 z m -2.084064,1.012401 v -1.407484 h 3.555749 v 1.407484 h -1.032155 v -0.533362 h -1.491439 v 0.533362 z"
             id="path2440" />
          <path
             d="m 38.540993,40.035645 v -2.701382 h 1.111171 v 0.9482 h 0.760535 v -0.9482 h 1.111172 v 2.701382 h -1.111172 v -0.879061 h -0.760535 v 0.879061 z"
             id="path2442" />
          <path
             d="m 42.047352,40.035645 v -2.701382 h 1.111171 v 1.21982 l 0.933384,-1.21982 h 1.027217 v 2.701382 h -1.111172 v -1.224758 l -0.928445,1.224758 z"
             id="path2444" />
          <path
             d="m 45.642614,40.035645 v -2.701382 h 1.111172 v 1.21982 l 0.933384,-1.21982 h 1.027216 v 2.701382 h -1.111171 v -1.224758 l -0.928446,1.224758 z m 1.461808,-2.923616 q -0.518547,0 -0.755597,-0.207419 -0.232111,-0.212357 -0.232111,-0.656826 h 0.716088 q 0,0.153095 0.05432,0.241989 0.05432,0.08396 0.212358,0.08396 0.153094,0 0.212357,-0.08396 0.0642,-0.08889 0.0642,-0.241989 h 0.725965 q 0,0.444469 -0.241988,0.656826 -0.23705,0.207419 -0.755597,0.207419 z"
             id="path2446" />
          <path
             d="m 52.773863,40.114661 q -0.01481,0 -0.07902,0 -0.0642,0 -0.128402,0 -0.05926,0 -0.07408,0 -0.938323,-0.01481 -1.442054,-0.375329 -0.503731,-0.365452 -0.503731,-1.066725 0,-0.691395 0.493854,-1.037093 0.498792,-0.350636 1.466746,-0.360513 0.0099,0 0.06914,0 0.0642,0 0.123463,0 0.0642,0 0.07408,0 0.98277,0 1.511194,0.350636 0.528423,0.345698 0.528423,1.04697 0,0.716089 -0.528423,1.081541 -0.528424,0.360513 -1.511194,0.360513 z m -0.04445,-0.770412 q 0.390144,0 0.612379,-0.0642 0.227172,-0.06914 0.321005,-0.217296 0.09877,-0.148156 0.09877,-0.390145 0,-0.232111 -0.09383,-0.365451 -0.09383,-0.13828 -0.321005,-0.197542 -0.222234,-0.0642 -0.617317,-0.0642 -0.01482,0 -0.07902,0 -0.0642,0 -0.08395,0 -0.365452,0 -0.577809,0.06914 -0.212358,0.0642 -0.301251,0.202481 -0.08396,0.13334 -0.08396,0.355574 0,0.23705 0.08396,0.385207 0.08889,0.143217 0.296312,0.212357 0.212357,0.06914 0.577809,0.07408 0.01975,0 0.08395,0 0.0642,0 0.08396,0 z m -0.533363,1.649472 v -4.622473 h 0.967954 v 4.622473 z"
             id="path2448" />
          <path
             d="m 56.556782,40.08503 q -0.459284,0 -0.814859,-0.177788 -0.350636,-0.182725 -0.553116,-0.498792 -0.202481,-0.316067 -0.202481,-0.725965 0,-0.409899 0.202481,-0.725966 0.20248,-0.316066 0.553116,-0.493854 0.355575,-0.177787 0.814859,-0.177787 0.459284,0 0.814859,0.177787 0.355575,0.177788 0.553117,0.493854 0.20248,0.316067 0.20248,0.725966 0,0.409898 -0.20248,0.725965 -0.197542,0.316067 -0.553117,0.498792 -0.355575,0.177788 -0.814859,0.177788 z m 0,-0.869183 q 0.123464,0 0.222234,-0.05926 0.09877,-0.05926 0.158034,-0.177787 0.05926,-0.123464 0.05926,-0.296312 0,-0.177788 -0.05926,-0.291374 -0.05926,-0.118525 -0.158034,-0.177788 -0.09877,-0.05926 -0.222234,-0.05926 -0.123463,0 -0.222234,0.05926 -0.09877,0.05926 -0.158033,0.177788 -0.05926,0.113586 -0.05926,0.291374 0,0.172848 0.05926,0.296312 0.05926,0.118525 0.158033,0.177787 0.09877,0.05926 0.222234,0.05926 z"
             id="path2450" />
          <path
             d="m 58.472937,40.035645 v -2.701382 h 1.111171 v 0.9482 h 0.760535 v -0.9482 h 1.111172 v 2.701382 h -1.111172 v -0.879061 h -0.760535 v 0.879061 z"
             id="path2452" />
          <path
             d="m 63.865818,39.556606 v -1.35316 h -0.558055 l -0.0049,0.167911 q -0.0049,0.172848 -0.01975,0.321005 -0.0099,0.148156 -0.04445,0.266681 -0.03457,0.113586 -0.103709,0.20248 -0.0642,0.08395 -0.182726,0.138279 l -1.091417,-0.138279 q 0.128402,0 0.212357,-0.0642 0.08396,-0.06914 0.128402,-0.187665 0.04939,-0.123463 0.06914,-0.281496 0.02469,-0.158034 0.02963,-0.34076 l 0.03457,-0.953138 h 2.642118 v 2.222343 z m -2.084064,1.012401 v -1.407484 h 3.555749 v 1.407484 h -1.032155 v -0.533362 h -1.491439 v 0.533362 z"
             id="path2454" />
          <path
             d="m 20.984475,45.843368 -0.681519,-0.987708 0.681519,-0.987708 h 0.987708 l -0.656826,0.987708 0.656826,0.987708 z m 1.308713,0 -0.681519,-0.987708 0.681519,-0.987708 h 0.987708 l -0.656826,0.987708 0.656826,0.987708 z"
             id="path2456" />
          <path
             d="m 25.937828,45.714966 v -2.059372 h -0.795105 l -0.0099,0.246927 q -0.0099,0.27162 -0.03457,0.50867 -0.02469,0.23705 -0.06914,0.434591 -0.03951,0.197542 -0.103709,0.350637 -0.0642,0.148156 -0.158034,0.246927 l -1.229696,-0.138279 q 0.162972,0 0.266681,-0.108648 0.108648,-0.113587 0.172849,-0.311128 0.0642,-0.20248 0.09383,-0.4741 0.03457,-0.276558 0.04939,-0.60744 l 0.03951,-1.051909 h 2.923616 v 2.963124 z m -2.498901,1.170433 v -1.580332 h 4.098988 v 1.580332 H 26.471191 V 46.20882 h -1.965539 v 0.676579 z"
             id="path2458" />
          <path
             d="m 29.69112,46.287836 q -0.424714,0 -0.785228,-0.13334 -0.355574,-0.133341 -0.617317,-0.375329 -0.261743,-0.246927 -0.409899,-0.57781 -0.143218,-0.330882 -0.143218,-0.721026 0,-0.395084 0.143218,-0.721027 0.148156,-0.330883 0.409899,-0.572871 0.261743,-0.246927 0.617317,-0.380268 0.360514,-0.13334 0.78029,-0.13334 0.424714,0 0.780289,0.13334 0.355575,0.133341 0.617318,0.380268 0.261742,0.241988 0.40496,0.572871 0.148156,0.325943 0.148156,0.721027 0,0.390144 -0.148156,0.721026 -0.143218,0.330883 -0.40496,0.57781 -0.261743,0.241988 -0.617318,0.375329 -0.355575,0.13334 -0.775351,0.13334 z m -0.0049,-0.943261 q 0.162972,0 0.301251,-0.05926 0.143217,-0.05926 0.246927,-0.167911 0.108648,-0.113586 0.16791,-0.27162 0.05926,-0.162971 0.05926,-0.365451 0,-0.202481 -0.05926,-0.360514 -0.05926,-0.162972 -0.16791,-0.27162 -0.10371,-0.113586 -0.246927,-0.172849 -0.138279,-0.05926 -0.301251,-0.05926 -0.162972,0 -0.30619,0.05926 -0.138279,0.05926 -0.246927,0.172849 -0.103709,0.108648 -0.162972,0.27162 -0.05926,0.158033 -0.05926,0.360514 0,0.20248 0.05926,0.365451 0.05926,0.158034 0.162972,0.27162 0.108648,0.108648 0.246927,0.167911 0.143218,0.05926 0.30619,0.05926 z"
             id="path2460" />
          <path
             d="m 32.056683,46.20882 v -3.456978 h 3.343392 v 3.456978 h -1.145742 v -2.800153 l 0.251866,0.246927 h -1.55564 l 0.251865,-0.246927 v 2.800153 z"
             id="path2462" />
          <path
             d="m 37.775515,46.287836 q -0.424714,0 -0.785228,-0.13334 -0.355575,-0.133341 -0.617317,-0.375329 -0.261743,-0.246927 -0.409899,-0.57781 -0.143218,-0.330882 -0.143218,-0.721026 0,-0.395084 0.143218,-0.721027 0.148156,-0.330883 0.409899,-0.572871 0.261742,-0.246927 0.617317,-0.380268 0.360514,-0.13334 0.78029,-0.13334 0.424714,0 0.780289,0.13334 0.355575,0.133341 0.617318,0.380268 0.261742,0.241988 0.40496,0.572871 0.148156,0.325943 0.148156,0.721027 0,0.390144 -0.148156,0.721026 -0.143218,0.330883 -0.40496,0.57781 -0.261743,0.241988 -0.617318,0.375329 -0.355575,0.13334 -0.775351,0.13334 z m -0.0049,-0.943261 q 0.162972,0 0.301251,-0.05926 0.143217,-0.05926 0.246927,-0.167911 0.108648,-0.113586 0.16791,-0.27162 0.05926,-0.162971 0.05926,-0.365451 0,-0.202481 -0.05926,-0.360514 -0.05926,-0.162972 -0.16791,-0.27162 -0.10371,-0.113586 -0.246927,-0.172849 -0.138279,-0.05926 -0.301251,-0.05926 -0.162972,0 -0.30619,0.05926 -0.138279,0.05926 -0.246927,0.172849 -0.103709,0.108648 -0.162972,0.27162 -0.05926,0.158033 -0.05926,0.360514 0,0.20248 0.05926,0.365451 0.05926,0.158034 0.162972,0.27162 0.108648,0.108648 0.246927,0.167911 0.143218,0.05926 0.30619,0.05926 z"
             id="path2464" />
          <path
             d="m 40.141078,46.20882 v -3.456978 h 0.958076 l 1.382792,2.256912 h -0.503732 l 1.343283,-2.256912 h 0.958077 l 0.0099,3.456978 h -1.061786 l -0.0099,-1.856892 h 0.16791 l -0.918568,1.545763 h -0.513608 l -0.958077,-1.545763 h 0.207419 v 1.856892 z"
             id="path2466" />
          <path
             d="m 46.659948,46.287836 q -0.424714,0 -0.785228,-0.13334 -0.355575,-0.133341 -0.617317,-0.375329 -0.261743,-0.246927 -0.409899,-0.57781 -0.143218,-0.330882 -0.143218,-0.721026 0,-0.395084 0.143218,-0.721027 0.148156,-0.330883 0.409899,-0.572871 0.261742,-0.246927 0.617317,-0.380268 0.360514,-0.13334 0.780289,-0.13334 0.424715,0 0.78029,0.13334 0.355575,0.133341 0.617317,0.380268 0.261743,0.241988 0.404961,0.572871 0.148156,0.325943 0.148156,0.721027 0,0.390144 -0.148156,0.721026 -0.143218,0.330883 -0.404961,0.57781 -0.261742,0.241988 -0.617317,0.375329 -0.355575,0.13334 -0.775351,0.13334 z m -0.0049,-0.943261 q 0.162972,0 0.301251,-0.05926 0.143218,-0.05926 0.246927,-0.167911 0.108648,-0.113586 0.167911,-0.27162 0.05926,-0.162971 0.05926,-0.365451 0,-0.202481 -0.05926,-0.360514 -0.05926,-0.162972 -0.167911,-0.27162 -0.103709,-0.113586 -0.246927,-0.172849 -0.138279,-0.05926 -0.301251,-0.05926 -0.162971,0 -0.306189,0.05926 -0.138279,0.05926 -0.246927,0.172849 -0.103709,0.108648 -0.162972,0.27162 -0.05926,0.158033 -0.05926,0.360514 0,0.20248 0.05926,0.365451 0.05926,0.158034 0.162972,0.27162 0.108648,0.108648 0.246927,0.167911 0.143218,0.05926 0.306189,0.05926 z"
             id="path2468" />
          <path
             d="m 49.025511,46.20882 v -3.456978 h 2.632242 v 0.903752 h -1.738366 l 0.251866,-0.251865 v 2.805091 z"
             id="path2470" />
          <path
             d="m 51.060193,46.20882 1.511193,-3.456978 h 1.145741 l 1.511194,3.456978 h -1.205004 l -1.11611,-2.903862 h 0.454346 l -1.11611,2.903862 z m 0.898814,-0.602502 0.296313,-0.839552 h 1.59021 l 0.296312,0.839552 z"
             id="path2472" />
          <path
             d="m 2.1735843,52.381994 v -3.456978 h 3.3433916 v 3.456978 H 4.3712346 v -2.800152 l 0.2518655,0.246927 H 3.06746 l 0.2518656,-0.246927 v 2.800152 z"
             id="path2474" />
          <path
             d="m 7.8924164,52.461011 q -0.4247144,0 -0.7852278,-0.13334 Q 6.7516137,52.19433 6.4898711,51.952342 6.2281285,51.705415 6.0799723,51.374532 5.9367546,51.04365 5.9367546,50.653505 q 0,-0.395083 0.1432177,-0.721026 Q 6.2281285,49.601596 6.4898711,49.359608 6.7516137,49.112681 7.1071886,48.97934 7.467702,48.846 7.8874779,48.846 q 0.4247144,0 0.7802893,0.13334 0.3555749,0.133341 0.6173175,0.380268 0.2617426,0.241988 0.4049603,0.572871 0.1481562,0.325943 0.1481562,0.721026 0,0.390145 -0.1481562,0.721027 -0.1432177,0.330883 -0.4049603,0.57781 -0.2617426,0.241988 -0.6173175,0.375329 -0.3555749,0.13334 -0.7753508,0.13334 z m -0.00494,-0.943261 q 0.1629718,0 0.3012509,-0.05926 0.1432177,-0.05926 0.246927,-0.167911 0.1086479,-0.113586 0.1679104,-0.27162 0.059263,-0.162971 0.059263,-0.365452 0,-0.20248 -0.059263,-0.360513 -0.059262,-0.162972 -0.1679104,-0.27162 -0.1037093,-0.113586 -0.246927,-0.172849 -0.1382791,-0.05926 -0.3012509,-0.05926 -0.1629718,0 -0.3061895,0.05926 -0.1382791,0.05926 -0.246927,0.172849 -0.1037093,0.108648 -0.1629718,0.27162 -0.059262,0.158033 -0.059262,0.360513 0,0.202481 0.059262,0.365452 0.059262,0.158034 0.1629718,0.27162 0.1086479,0.108648 0.246927,0.167911 0.1432177,0.05926 0.3061895,0.05926 z"
             id="path2476" />
          <path
             d="m 11.996345,52.461011 q -0.414838,0 -0.770412,-0.128402 -0.350637,-0.13334 -0.612379,-0.375329 -0.256804,-0.241988 -0.400022,-0.572871 -0.143218,-0.330882 -0.143218,-0.730904 0,-0.400021 0.143218,-0.730903 0.143218,-0.330883 0.400022,-0.572871 0.261742,-0.241989 0.612379,-0.370391 0.355574,-0.13334 0.770412,-0.13334 0.508669,0 0.898814,0.177787 0.395083,0.177788 0.651887,0.513608 l -0.735842,0.656826 q -0.153095,-0.192603 -0.340759,-0.296312 -0.182726,-0.108648 -0.414838,-0.108648 -0.182726,0 -0.330882,0.05926 -0.148156,0.05926 -0.256804,0.172849 -0.103709,0.113587 -0.162972,0.276559 -0.05926,0.158033 -0.05926,0.355574 0,0.197542 0.05926,0.360514 0.05926,0.158033 0.162972,0.27162 0.108648,0.113586 0.256804,0.172849 0.148156,0.05926 0.330882,0.05926 0.232112,0 0.414838,-0.103709 0.187664,-0.108648 0.340759,-0.301251 l 0.735842,0.656826 q -0.256804,0.330882 -0.651887,0.513608 -0.390145,0.177787 -0.898814,0.177787 z"
             id="path2478" />
          <path
             d="m 14.65822,52.381994 v -2.80509 l 0.251865,0.251865 h -1.264266 v -0.903753 h 3.170543 v 0.903753 h -1.264267 l 0.251866,-0.251865 v 2.80509 z"
             id="path2480" />
          <path
             d="m 17.201567,52.381994 v -3.456978 h 1.664288 q 0.483977,0 0.834613,0.158034 0.355575,0.158033 0.548178,0.454345 0.192603,0.291374 0.192603,0.691396 0,0.400022 -0.192603,0.691396 -0.192603,0.291374 -0.548178,0.454345 -0.350636,0.158034 -0.834613,0.158034 h -1.017339 l 0.518546,-0.498793 v 1.348221 z m 1.165495,-1.219819 -0.518546,-0.528424 h 0.943261 q 0.241988,0 0.355575,-0.108648 0.118525,-0.108647 0.118525,-0.296312 0,-0.187664 -0.118525,-0.296312 -0.113587,-0.108648 -0.355575,-0.108648 h -0.943261 l 0.518546,-0.528424 z"
             id="path2482" />
          <path
             d="m 20.32766,52.381994 1.511194,-3.456978 h 1.145741 l 1.511193,3.456978 h -1.205004 l -1.11611,-2.903861 h 0.454346 l -1.11611,2.903861 z m 0.898815,-0.602501 0.296312,-0.839552 h 1.59021 l 0.296312,0.839552 z"
             id="path2484" />
          <path
             d="m 28.575018,52.381994 -0.740781,-1.619841 0.977831,-0.543239 1.101295,2.16308 z m -1.209942,-1.24945 v -0.918569 h 1.15068 v 0.918569 z m 1.511193,-0.355575 -1.076601,-0.108648 0.849428,-1.743305 h 1.214881 z m -3.195235,1.605025 H 24.34269 l 1.106232,-2.16308 0.977831,0.543239 z m 2.019863,0 h -1.135864 v -3.456978 h 1.135864 z m -0.800044,-1.24945 h -1.160557 v -0.918569 h 1.160557 z m -1.516132,-0.355575 -0.992646,-1.851953 h 1.214881 l 0.834613,1.743305 z"
             id="path2486" />
          <path
             d="m 32.525847,51.88814 v -2.059371 h -0.795105 l -0.0099,0.246927 q -0.0099,0.27162 -0.03457,0.50867 -0.02469,0.23705 -0.06914,0.434591 -0.03951,0.197542 -0.10371,0.350637 -0.0642,0.148156 -0.158033,0.246927 l -1.229696,-0.138279 q 0.162971,0 0.266681,-0.108648 0.108648,-0.113587 0.172849,-0.311128 0.0642,-0.20248 0.09383,-0.4741 0.03457,-0.276558 0.04939,-0.60744 l 0.03951,-1.05191 h 2.923615 v 2.963124 z m -2.498901,1.170434 v -1.580332 h 4.098988 v 1.580332 h -1.066725 v -0.67658 h -1.965538 v 0.67658 z"
             id="path2488" />
          <path
             d="m 34.274094,52.381994 1.511194,-3.456978 h 1.145741 l 1.511193,3.456978 h -1.205004 l -1.11611,-2.903861 h 0.454346 l -1.11611,2.903861 z m 0.898815,-0.602501 0.296312,-0.839552 h 1.59021 l 0.296312,0.839552 z"
             id="path2490" />
          <path
             d="m 39.069419,52.446196 q -0.108648,0 -0.232112,-0.01482 -0.123463,-0.01482 -0.261742,-0.04939 l 0.05926,-0.933384 q 0.06914,0.01482 0.128402,0.01482 0.192603,0 0.286436,-0.158033 0.09383,-0.158034 0.128402,-0.424715 0.03457,-0.271619 0.04445,-0.60744 l 0.04445,-1.348222 h 2.918678 v 3.456978 h -1.145742 v -2.800152 l 0.251866,0.246927 h -1.259328 l 0.227173,-0.261742 -0.01975,0.661764 q -0.01482,0.498793 -0.06914,0.908691 -0.04939,0.404961 -0.172849,0.701273 -0.123463,0.291374 -0.350636,0.449407 -0.222234,0.158034 -0.577809,0.158034 z"
             id="path2492" />
          <path
             d="m 42.798012,52.381994 v -3.456978 h 1.145741 v 1.797629 l 1.190189,-1.797629 h 1.096355 v 3.456978 h -1.145741 v -1.79269 l -1.185249,1.79269 z"
             id="path2494" />
          <path
             d="m 46.842678,52.381994 v -3.456978 h 0.958077 l 1.382791,2.256913 h -0.503731 l 1.343283,-2.256913 h 0.958077 l 0.0099,3.456978 h -1.061786 l -0.0099,-1.856891 h 0.16791 l -0.918568,1.545763 h -0.513608 l -0.958077,-1.545763 h 0.207418 v 1.856891 z"
             id="path2496" />
          <path
             d="M 55.356715,51.88814 V 49.828769 H 54.56161 l -0.0099,0.246927 q -0.0099,0.27162 -0.03457,0.50867 -0.02469,0.23705 -0.06914,0.434591 -0.03951,0.197542 -0.10371,0.350637 -0.0642,0.148156 -0.158033,0.246927 L 52.95656,51.478242 q 0.162972,0 0.266682,-0.108648 0.108647,-0.113587 0.172848,-0.311128 0.0642,-0.20248 0.09383,-0.4741 0.03457,-0.276558 0.04939,-0.60744 l 0.03951,-1.05191 h 2.923616 v 2.963124 z m -2.498901,1.170434 v -1.580332 h 4.098988 v 1.580332 h -1.066725 v -0.67658 h -1.965539 v 0.67658 z"
             id="path2498" />
          <path
             d="m 57.346947,52.381994 v -3.456978 h 1.145741 v 3.456978 z"
             id="path2500" />
          <path
             d="m 59.8903,52.381994 v -2.80509 l 0.251866,0.251865 H 58.8779 v -0.903753 h 3.170542 v 0.903753 h -1.264266 l 0.251865,-0.251865 v 2.80509 z"
             id="path2502" />
          <path
             d="m 64.172011,52.381994 v -1.051909 l 0.271619,0.232112 h -0.795105 q -0.479038,0 -0.829674,-0.153095 -0.345698,-0.158033 -0.533363,-0.449407 -0.187664,-0.291374 -0.187664,-0.696334 0,-0.414838 0.192603,-0.71115 0.197542,-0.301251 0.558055,-0.464223 0.360513,-0.162972 0.849429,-0.162972 h 1.619841 v 3.456978 z m -2.059371,0 0.869183,-1.259327 h 1.160556 l -0.80992,1.259327 z m 2.059371,-1.41736 v -1.4223 l 0.271619,0.281497 h -0.725965 q -0.222234,0 -0.335821,0.103709 -0.108648,0.103709 -0.108648,0.316067 0,0.217295 0.113587,0.330882 0.113586,0.108648 0.330882,0.108648 h 0.725965 z"
             id="path2504" />
          <path
             d="m 65.930134,52.381994 v -3.456978 h 0.958077 l 1.382791,2.256913 h -0.503731 l 1.343283,-2.256913 h 0.958077 l 0.0099,3.456978 h -1.061786 l -0.0099,-1.856891 h 0.16791 l -0.918569,1.545763 h -0.513608 l -0.958076,-1.545763 h 0.207418 v 1.856891 z"
             id="path2506" />
          <path
             d="m 71.441541,52.016543 h -0.987708 l 0.656825,-0.987708 -0.656825,-0.987708 h 0.987708 l 0.681518,0.987708 z m 1.308713,0 h -0.987708 l 0.656825,-0.987708 -0.656825,-0.987708 h 0.987708 l 0.681518,0.987708 z"
             id="path2508" />
        </g>
      </g>
    </g>
  </g>
</svg>
