<svg width="24" height="24" viewBox="0 0 24 24" fill="none" xmlns="http://www.w3.org/2000/svg">
<circle cx="12" cy="12" r="12" fill="#FFDD00"/>
<path d="M5.93794 7.42756L7.66601 5.70112C7.78791 5.57868 7.93279 5.48154 8.09235 5.41527C8.2519 5.34899 8.42298 5.3149 8.59575 5.31494C8.94786 5.31494 9.27887 5.45286 9.52712 5.70112L11.3866 7.56061C11.5091 7.68251 11.6062 7.8274 11.6725 7.98696C11.7387 8.14651 11.7728 8.31759 11.7728 8.49036C11.7728 8.84247 11.6349 9.17348 11.3866 9.42173L10.0269 10.7815C10.3452 11.483 10.7877 12.1212 11.3331 12.6653C11.8771 13.212 12.5153 13.6561 13.2169 13.9764L14.5766 12.6166C14.6985 12.4942 14.8434 12.397 15.003 12.3308C15.1625 12.2645 15.3336 12.2304 15.5064 12.2304C15.8585 12.2304 16.1895 12.3684 16.4378 12.6166L18.2989 14.4745C18.4215 14.5966 18.5187 14.7418 18.585 14.9016C18.6512 15.0615 18.6853 15.2328 18.6851 15.4059C18.6851 15.758 18.5471 16.089 18.2989 16.3372L16.5741 18.0621C16.1781 18.4596 15.6313 18.6851 15.0699 18.6851C14.9515 18.6851 14.8379 18.6754 14.7259 18.6559C12.5387 18.2957 10.3693 17.1323 8.61847 15.3832C6.86931 13.6356 5.70753 11.4678 5.34245 9.27408C5.23211 8.60394 5.45441 7.91434 5.93794 7.42756Z" fill="black"/>
</svg>